<svg xmlns="http://www.w3.org/2000/svg" width="192" height="192" viewBox="0 0 192 192">
  <!-- Background -->
  <rect width="192" height="192" rx="24" fill="#3b82f6"/>
  
  <!-- Log file icon -->
  <g transform="translate(48, 32)">
    <!-- Document background -->
    <path d="M8 8h80v112a8 8 0 01-8 8H16a8 8 0 01-8-8V16a8 8 0 018-8z" fill="white"/>
    
    <!-- Lines representing log entries -->
    <rect x="16" y="24" width="64" height="4" rx="2" fill="#3b82f6"/>
    <rect x="16" y="36" width="48" height="4" rx="2" fill="#6b7280"/>
    <rect x="16" y="48" width="56" height="4" rx="2" fill="#6b7280"/>
    <rect x="16" y="60" width="40" height="4" rx="2" fill="#6b7280"/>
    <rect x="16" y="72" width="60" height="4" rx="2" fill="#3b82f6"/>
    <rect x="16" y="84" width="44" height="4" rx="2" fill="#6b7280"/>
    <rect x="16" y="96" width="52" height="4" rx="2" fill="#6b7280"/>
    <rect x="16" y="108" width="36" height="4" rx="2" fill="#6b7280"/>
  </g>
  
  <!-- Analytics symbol -->
  <g transform="translate(120, 120)">
    <circle cx="16" cy="16" r="16" fill="white"/>
    <path d="M8 20h4v-8h4v12h4v-16h4v20H8z" fill="#3b82f6"/>
  </g>
</svg>
